<?xml version="1.0" encoding="UTF-8" standalone="no"?>
<!-- Created with Inkscape (http://www.inkscape.org/) -->

<svg
	width="210mm"
	height="297mm"
	viewBox="0 0 210 297"
	version="1.1"
	id="svg5"
	xml:space="preserve"
	xmlns:xlink="http://www.w3.org/1999/xlink"
	xmlns="http://www.w3.org/2000/svg"
	xmlns:svg="http://www.w3.org/2000/svg"
>
	<defs id="defs2">
		<pattern
			xlink:href="#pattern1407"
			id="pattern2699"
			patternTransform="matrix(0.26458333,0,0,0.26458333,45.244339,-17.28873)"
		/>
		<pattern
			patternUnits="userSpaceOnUse"
			width="400.00004"
			height="400.00004"
			patternTransform="translate(171.00223,204.29733)"
			id="pattern1407"
		>
			<image
				width="400.00003"
				height="400.00003"
				preserveAspectRatio="none"
				xlink:href="https://picsum.photos/seed/picsum/400"
				id="image140"
				x="0"
				y="0"
			/>
		</pattern>
	</defs>
	<g id="layer1">
		<path
			id="rect1410"
			style="fill: url(#pattern2699); stroke: none; stroke-width: 0.264583"
			d="m 99.906562,3.0907854 c -0.302585,-1.376e-4 -0.607033,0.00399 -0.913122,0.011885 -0.306088,0.0079 -0.613939,0.019537 -0.922941,0.035139 -0.309001,0.015602 -0.619365,0.035407 -0.930693,0.058396 -0.311324,0.022987 -0.623832,0.04953 -0.936892,0.079581 -0.313063,0.030049 -0.626819,0.063463 -0.941027,0.1002506 -0.314212,0.03679 -0.628844,0.076687 -0.943613,0.1198906 -0.31477,0.043204 -0.629391,0.089712 -0.944129,0.1390095 -0.314737,0.049297 -0.629491,0.1015126 -0.943612,0.1565804 -0.314119,0.055068 -0.627597,0.1131173 -0.940509,0.1736328 -0.312913,0.060513 -0.625261,0.1234969 -0.936379,0.1891347 -0.311116,0.065638 -0.620927,0.1336834 -0.929659,0.2041208 -0.308732,0.07044 -0.616148,0.1431581 -0.921906,0.2180748 -0.305758,0.07492 -0.609894,0.1519211 -0.91209,0.2309945 -0.302197,0.079073 -0.602673,0.160491 -0.900721,0.2433955 -0.298045,0.082905 -0.593977,0.1673199 -0.887283,0.2537328 -0.293307,0.086413 -0.583803,0.1744662 -0.871781,0.2640647 -0.287978,0.089601 -0.573185,0.1809062 -0.855244,0.2733702 -0.282062,0.092461 -0.561089,0.1861158 -0.836642,0.2811198 -0.275556,0.095001 -0.548029,0.191135 -0.816488,0.2883535 -0.268462,0.097219 -0.532972,0.195961 -0.79375,0.2950712 -0.260779,0.099113 -0.517472,0.1990408 -0.76998,0.2997253 -0.252505,0.1006819 -0.50101,0.2019247 -0.744657,0.3038555 -0.243647,0.1019333 -0.482555,0.2041022 -0.716753,0.3069589 -0.234196,0.1028568 -0.463653,0.2065999 -0.687811,0.31006 -0.05863,0.027059 -0.116136,0.055414 -0.173117,0.085265 -0.05698,0.029853 -0.113469,0.061198 -0.168981,0.093535 -0.111028,0.064672 -0.219298,0.1339321 -0.325562,0.2067057 -0.106268,0.072771 -0.210183,0.1489578 -0.313161,0.227375 -0.102976,0.078417 -0.204761,0.1586865 -0.305925,0.2402972 -0.202326,0.1632162 -0.402772,0.3306974 -0.606681,0.4919583 -0.101952,0.080632 -0.204465,0.1597025 -0.309023,0.2361618 -0.104561,0.076459 -0.211241,0.1503045 -0.319879,0.2201413 -0.347432,0.2233506 -0.734245,0.4695932 -1.147733,0.7369072 -0.206745,0.133654 -0.420058,0.272706 -0.638204,0.416512 -0.218146,0.143804 -0.441521,0.292574 -0.66766,0.445966 -0.226137,0.153395 -0.455023,0.311452 -0.685745,0.473874 -0.230722,0.16242 -0.46315,0.32934 -0.695049,0.500227 -0.231897,0.170889 -0.463318,0.345723 -0.692981,0.524515 -0.229664,0.178795 -0.457589,0.361116 -0.681612,0.547253 -0.224023,0.18614 -0.444418,0.376037 -0.659392,0.568958 -0.107484,0.09646 -0.213741,0.193921 -0.318325,0.291973 -0.104585,0.09805 -0.207254,0.196532 -0.30851,0.296106 -0.101256,0.09957 -0.20067,0.200249 -0.298172,0.301273 -0.0975,0.101025 -0.192966,0.202485 -0.286287,0.304892 -0.09332,0.102405 -0.184653,0.205309 -0.273368,0.309026 -0.08872,0.103714 -0.175215,0.2082 -0.2589,0.313158 -0.08369,0.104955 -0.164652,0.21065 -0.242879,0.316775 -0.07823,0.106127 -0.153485,0.212651 -0.225825,0.319878 -0.07234,0.107228 -0.141708,0.215236 -0.20774,0.323496 -0.06603,0.108257 -0.128807,0.21686 -0.188103,0.326078 -0.0593,0.109217 -0.115297,0.219069 -0.167431,0.329178 -0.05213,0.110107 -0.10015,0.220319 -0.144695,0.331245 -0.04454,0.110927 -0.08543,0.222671 -0.121954,0.334346 -0.03653,0.111678 -0.06907,0.223542 -0.09715,0.335897 -0.01457,0.05826 -0.02563,0.116628 -0.03359,0.175702 -0.008,0.05907 -0.01277,0.118568 -0.0155,0.178281 -0.0027,0.05972 -0.0032,0.120161 -0.0021,0.180354 0.0011,0.06019 0.0041,0.120366 0.0078,0.180866 0.0073,0.121002 0.01777,0.242578 0.02687,0.363802 0.0091,0.121224 0.01654,0.242147 0.01654,0.362252 0,0.120105 -0.0034,0.240384 -0.0093,0.361217 -0.0059,0.120835 -0.01415,0.242062 -0.02325,0.363286 -0.01821,0.242451 -0.04021,0.4856 -0.05478,0.727604 -0.0073,0.121002 -0.01271,0.241866 -0.01499,0.362252 -0.0023,0.120385 -0.0013,0.240236 0.0041,0.359669 0.0055,0.119433 0.01559,0.238424 0.03152,0.356566 0.008,0.05907 0.01733,0.11753 0.02842,0.176218 0.01109,0.05869 0.02367,0.11744 0.03824,0.175699 0.01628,0.06514 0.03636,0.128635 0.05943,0.191204 0.02307,0.06257 0.0492,0.123885 0.07752,0.184483 0.02831,0.0606 0.05894,0.120608 0.09095,0.179835 0.032,0.05923 0.06558,0.11776 0.09973,0.176217 0.0683,0.116912 0.1391,0.23295 0.206706,0.350367 0.0338,0.05871 0.06688,0.118033 0.09818,0.177766 0.03131,0.05973 0.0611,0.12003 0.08837,0.181385 0.0933,0.20992 0.187589,0.416181 0.283702,0.619598 0.09611,0.20342 0.193966,0.404024 0.293007,0.601515 0.09904,0.19749 0.19971,0.392321 0.301789,0.584462 0.102079,0.192137 0.205349,0.381592 0.310576,0.568957 0.105228,0.187362 0.212426,0.372359 0.320911,0.555522 0.108487,0.18316 0.218358,0.364614 0.330213,0.544152 0.111855,0.179539 0.225729,0.357328 0.341064,0.533816 0.115334,0.17649 0.231957,0.351533 0.350882,0.52555 0.118925,0.174016 0.240144,0.346712 0.36277,0.518832 0.122624,0.172119 0.246666,0.343384 0.373102,0.51418 0.126439,0.170797 0.255146,0.34103 0.385506,0.51108 0.13036,0.17005 0.262483,0.340164 0.396875,0.510045 0.268788,0.339762 0.545894,0.679625 0.831475,1.022162 0.28558,0.342535 0.579889,0.687748 0.88315,1.037662 0.350369,0.404272 0.642358,0.744394 0.891936,1.036629 0.249577,0.292235 0.456825,0.536332 0.637686,0.749308 0.180861,0.212977 0.335336,0.394711 0.479557,0.561208 0.144222,0.166494 0.277887,0.317974 0.417547,0.47077 0.139658,0.152797 0.284993,0.307163 0.452168,0.479042 0.167174,0.171878 0.356147,0.361238 0.582911,0.584978 0.453528,0.447474 1.058685,1.031494 1.943034,1.883087 0.225335,0.216993 0.451004,0.438055 0.677476,0.662493 0.226476,0.224438 0.453269,0.452027 0.681615,0.681611 0.456686,0.459169 0.917918,0.926717 1.386477,1.39268 0.234278,0.232984 0.470657,0.465367 0.709001,0.6966 0.238342,0.23123 0.47878,0.461145 0.721919,0.688329 0.243141,0.227182 0.488756,0.451993 0.737422,0.672828 0.248669,0.220834 0.500584,0.437901 0.75551,0.650089 0.127463,0.106093 0.255823,0.21069 0.38499,0.314193 0.129164,0.103499 0.259199,0.205819 0.390157,0.30644 0.130959,0.100621 0.26248,0.199686 0.395325,0.29714 0.132845,0.09745 0.266705,0.193323 0.401526,0.287322 0.134819,0.094 0.270838,0.186214 0.407726,0.276468 0.136887,0.09025 0.274883,0.178359 0.41393,0.264584 0.139046,0.08622 0.278831,0.170272 0.420129,0.252179 0.141296,0.08191 0.283723,0.16196 0.427363,0.239263 0.14364,0.0773 0.288525,0.151863 0.434599,0.224277 0.146071,0.07241 0.293754,0.142573 0.442349,0.209806 0.148598,0.06723 0.298373,0.131504 0.449586,0.193268 0.151214,0.06177 0.303932,0.120724 0.457853,0.176734 0.153921,0.05601 0.308885,0.109193 0.465606,0.159165 0.15672,0.04997 0.314777,0.09692 0.47439,0.14056 0.15961,0.04364 0.321098,0.0839 0.48369,0.120923 0.162594,0.03702 0.326292,0.07065 0.491961,0.100769 0.159845,0.02906 0.320633,0.05341 0.482139,0.07338 0.161507,0.01997 0.323832,0.03554 0.486794,0.04754 0.16296,0.012 0.326718,0.02068 0.490924,0.02584 0.164208,0.0052 0.328782,0.0067 0.494027,0.0062 0.165248,-5.45e-4 0.331047,-0.0037 0.497128,-0.0088 0.166082,-0.0051 0.332486,-0.01211 0.499195,-0.02067 0.333417,-0.01713 0.667832,-0.03995 1.002522,-0.06408 0.33469,-0.02412 0.669761,-0.04924 1.004073,-0.07132 0.167156,-0.01103 0.333991,-0.02166 0.500745,-0.03049 0.166754,-0.0088 0.333568,-0.01622 0.499711,-0.0217 0.166142,-0.0055 0.331803,-0.0088 0.497128,-0.0098 0.165325,-10e-4 0.33024,5.82e-4 0.494543,0.0052 0.164301,0.0046 0.327853,0.01194 0.490927,0.02325 0.163073,0.01132 0.32567,0.02629 0.487306,0.04548 0.214925,-0.04298 0.412085,-0.08709 0.594795,-0.133326 0.18271,-0.04624 0.35113,-0.09474 0.50901,-0.144693 0.15788,-0.04996 0.305,-0.101396 0.44545,-0.155549 0.14045,-0.05415 0.27422,-0.110691 0.40463,-0.169497 0.13041,-0.05881 0.25722,-0.120039 0.38499,-0.183967 0.12777,-0.06393 0.25609,-0.130469 0.38861,-0.199988 0.26504,-0.139042 0.54698,-0.290031 0.87539,-0.454237 0.0269,-0.01343 0.0557,-0.02074 0.0858,-0.02377 0.0301,-0.003 0.0614,-0.0015 0.0935,0.0026 0.0322,0.0041 0.0655,0.01111 0.0987,0.01912 0.0332,0.008 0.0662,0.01717 0.0992,0.02584 0.033,0.0087 0.0659,0.01667 0.0977,0.02274 0.0318,0.0061 0.0626,0.01012 0.092,0.01033 0.0294,2.17e-4 0.0573,-0.0035 0.0832,-0.0124 0.0129,-0.0044 0.0254,-0.01024 0.0372,-0.01757 0.0118,-0.0073 0.023,-0.01626 0.0336,-0.02687 0.0106,-0.01061 0.017,-0.02267 0.0207,-0.03617 0.004,-0.0135 0.004,-0.02836 0.003,-0.04392 -0.003,-0.03113 -0.0132,-0.06531 -0.0238,-0.09974 -0.0106,-0.03442 -0.0211,-0.06913 -0.0238,-0.10025 -0.001,-0.01556 -0.001,-0.03043 0.003,-0.04393 0.004,-0.0135 0.0106,-0.02556 0.0212,-0.03617 0.0106,-0.01062 0.0217,-0.01955 0.0336,-0.02687 0.0119,-0.0073 0.0243,-0.01313 0.0372,-0.01757 0.0259,-0.0089 0.0538,-0.0121 0.0832,-0.01188 0.0294,2.16e-4 0.0602,0.0038 0.092,0.0098 0.0318,0.0061 0.0647,0.01459 0.0977,0.02325 0.033,0.0087 0.0661,0.01782 0.0992,0.02584 0.0332,0.008 0.066,0.01449 0.0982,0.0186 0.0322,0.0041 0.064,0.0056 0.094,0.0026 0.0301,-0.003 0.0584,-0.01034 0.0853,-0.02377 0.038,-0.01899 0.0732,-0.04198 0.10594,-0.06821 0.0328,-0.02623 0.0635,-0.05593 0.0925,-0.08733 0.029,-0.03141 0.0564,-0.06471 0.0832,-0.09922 0.0268,-0.03451 0.053,-0.06987 0.0791,-0.105421 0.026,-0.03554 0.0518,-0.07143 0.0785,-0.105936 0.0268,-0.03451 0.0547,-0.06781 0.0837,-0.09922 0.029,-0.03141 0.0592,-0.06058 0.092,-0.08682 0.0328,-0.02623 0.068,-0.04922 0.10594,-0.06821 0.0134,-0.0067 0.0278,-0.01089 0.0429,-0.0124 0.015,-0.0015 0.0304,-5.08e-4 0.0465,0.0016 0.0322,0.0041 0.0662,0.01356 0.0992,0.02222 0.033,0.0087 0.0652,0.01632 0.0946,0.01654 0.0147,1.08e-4 0.0289,-0.0018 0.0419,-0.0062 0.0129,-0.0044 0.0245,-0.01109 0.0351,-0.0217 0.0106,-0.01062 0.0175,-0.02319 0.0212,-0.03669 0.004,-0.0135 0.004,-0.02836 0.003,-0.04392 -0.003,-0.03113 -0.0132,-0.06531 -0.0238,-0.09974 -0.0106,-0.03443 -0.0211,-0.06913 -0.0238,-0.100253 -0.001,-0.01556 -5.5e-4,-0.02991 0.003,-0.04341 0.004,-0.0135 0.0101,-0.02608 0.0207,-0.03669 0.0106,-0.01061 0.0232,-0.01702 0.0367,-0.02067 0.0135,-0.0036 0.0279,-0.0044 0.0434,-0.0031 0.0311,0.0027 0.0658,0.01316 0.10025,0.02377 0.0344,0.01062 0.0686,0.02112 0.0997,0.02377 0.0156,0.0013 0.0304,0.0011 0.0439,-0.0026 0.0135,-0.0036 0.0256,-0.01057 0.0362,-0.02119 0.0106,-0.01061 0.0178,-0.02221 0.0222,-0.03514 0.004,-0.01293 0.006,-0.02717 0.006,-0.04186 -2.2e-4,-0.02937 -0.008,-0.06155 -0.0165,-0.09457 -0.009,-0.03302 -0.0181,-0.06652 -0.0222,-0.0987 -0.002,-0.01609 -0.003,-0.03198 -0.002,-0.04702 0.002,-0.01504 0.005,-0.02946 0.0119,-0.04289 0.031,-0.06207 0.0827,-0.147862 0.14934,-0.251147 0.0666,-0.103286 0.14824,-0.223875 0.24081,-0.356053 0.0926,-0.132175 0.19596,-0.27604 0.3049,-0.424778 0.10894,-0.148741 0.2233,-0.302294 0.33899,-0.455271 0.23139,-0.305951 0.46688,-0.608372 0.66766,-0.857311 0.10039,-0.12447 0.19246,-0.235386 0.27079,-0.327112 0.0783,-0.09173 0.14299,-0.164182 0.18965,-0.210839 0.139,-0.139004 0.27919,-0.276994 0.42064,-0.41393 0.14146,-0.136935 0.28407,-0.272854 0.42737,-0.408244 0.28659,-0.270777 0.57629,-0.538948 0.86661,-0.806667 0.29032,-0.267721 0.58156,-0.534736 0.87075,-0.803568 0.28919,-0.268836 0.57618,-0.539266 0.85938,-0.813388 0.1416,-0.137062 0.28249,-0.27528 0.42168,-0.414446 0.13919,-0.139165 0.27672,-0.279371 0.41289,-0.421163 0.13618,-0.141791 0.27105,-0.28501 0.4036,-0.429948 0.13254,-0.144939 0.26287,-0.291674 0.39119,-0.440283 0.12831,-0.148608 0.25428,-0.299371 0.37775,-0.452167 0.12348,-0.1528 0.24474,-0.307579 0.36277,-0.46509 0.11803,-0.157509 0.23271,-0.317844 0.34468,-0.48059 0.11198,-0.162745 0.22129,-0.328109 0.3266,-0.496609 0.063,-0.100769 0.12442,-0.20329 0.18448,-0.307994 0.0601,-0.104703 0.11849,-0.211457 0.1757,-0.319876 0.0572,-0.108418 0.11302,-0.218821 0.16743,-0.330729 0.0544,-0.111911 0.10748,-0.225369 0.15917,-0.340548 0.0517,-0.115181 0.10188,-0.23214 0.15089,-0.350366 0.049,-0.118227 0.0967,-0.237583 0.14315,-0.358635 0.0464,-0.121052 0.0915,-0.243763 0.13539,-0.367419 0.0438,-0.123656 0.0863,-0.248616 0.12764,-0.374655 0.0827,-0.252074 0.16095,-0.508678 0.23409,-0.768946 0.0731,-0.260265 0.14162,-0.523967 0.20568,-0.790649 0.0641,-0.266681 0.12335,-0.536381 0.1788,-0.807701 0.0554,-0.27132 0.10666,-0.544375 0.15399,-0.818555 0.0473,-0.27418 0.091,-0.549494 0.13074,-0.824756 0.0397,-0.275262 0.0755,-0.550188 0.10801,-0.824757 0.0326,-0.274568 0.0619,-0.548523 0.0879,-0.820621 0.0259,-0.272097 0.0485,-0.542438 0.0682,-0.810286 0.0197,-0.267849 0.0366,-0.532961 0.0506,-0.794785 0.0141,-0.261824 0.0257,-0.520607 0.0346,-0.774628 0.009,-0.254022 0.0149,-0.503317 0.0191,-0.747758 0.004,-0.24444 0.006,-0.483669 0.006,-0.716753 0,-0.309759 -0.003,-0.61635 -0.008,-0.91984 -0.005,-0.303491 -0.0128,-0.604285 -0.0227,-0.903304 -0.01,-0.299018 -0.0223,-0.596108 -0.0362,-0.892452 -0.0139,-0.296344 -0.0295,-0.591815 -0.0465,-0.887283 -0.034,-0.590939 -0.0732,-1.182034 -0.11524,-1.780254 -0.0421,-0.598221 -0.087,-1.203262 -0.13126,-1.823146 -0.005,-0.07487 -0.007,-0.150501 -0.007,-0.225825 3.9e-4,-0.07532 0.003,-0.150754 0.007,-0.226343 0.008,-0.151178 0.0212,-0.302599 0.032,-0.453718 0.005,-0.07556 0.0104,-0.151077 0.0134,-0.226343 0.003,-0.07527 0.004,-0.150003 0.003,-0.224793 -0.001,-0.07479 -0.006,-0.149632 -0.0134,-0.223758 -0.008,-0.07413 -0.0194,-0.147899 -0.0357,-0.221176 -0.0124,-0.05598 -0.0305,-0.120983 -0.0532,-0.193786 -0.0228,-0.0728 -0.0502,-0.153074 -0.0822,-0.240297 -0.064,-0.174442 -0.14547,-0.375555 -0.23978,-0.593243 -0.0943,-0.217692 -0.20147,-0.452319 -0.31729,-0.694016 -0.11583,-0.241699 -0.24042,-0.490437 -0.36897,-0.736907 -0.12855,-0.24647 -0.2613,-0.490431 -0.39378,-0.722437 -0.0662,-0.116001 -0.13235,-0.2291843 -0.19791,-0.3379625 -0.0656,-0.1087781 -0.13051,-0.2129737 -0.19431,-0.3121263 -0.0638,-0.09915 -0.12613,-0.1929685 -0.18707,-0.2800853 -0.0609,-0.087119 -0.12028,-0.1676135 -0.17725,-0.2402945 -0.057,-0.072684 -0.11191,-0.1379485 -0.16381,-0.1937888 -0.0519,-0.055838 -0.10102,-0.1024176 -0.14676,-0.1390094 -0.1106,-0.088477 -0.22364,-0.1730746 -0.339,-0.2547647 -0.11536,-0.08169 -0.23289,-0.1607079 -0.35192,-0.2371936 -0.11903,-0.076488 -0.23963,-0.1503733 -0.36122,-0.2232422 -0.12158,-0.072872 -0.24437,-0.144653 -0.36742,-0.2154926 -0.24609,-0.1416738 -0.49366,-0.2806858 -0.73897,-0.423746 -0.12265,-0.07153 -0.24507,-0.1438196 -0.36587,-0.2180749 -0.1208,-0.074253 -0.24027,-0.1503627 -0.35811,-0.2289255 -0.39124,-0.2608236 -0.78697,-0.5368237 -1.1896,-0.8128714 -0.20131,-0.1380225 -0.40438,-0.2762911 -0.60926,-0.4123769 -0.20488,-0.1360858 -0.41172,-0.270174 -0.62063,-0.4004919 -0.20892,-0.1303178 -0.42013,-0.2570347 -0.63356,-0.3777562 -0.10671,-0.060359 -0.21401,-0.1189725 -0.32194,-0.1762151 -0.10794,-0.057243 -0.21635,-0.1127522 -0.32556,-0.1663991 -0.10921,-0.053647 -0.21915,-0.1054576 -0.3297,-0.15503 -0.11055,-0.04957 -0.22189,-0.097091 -0.33383,-0.1421103 -0.11194,-0.045016 -0.22457,-0.087654 -0.33796,-0.1276403 -0.1134,-0.039984 -0.22719,-0.077147 -0.3421,-0.1116198 -0.12669,-0.038007 -0.25466,-0.07474 -0.38344,-0.1100719 -0.12878,-0.035332 -0.25833,-0.06962 -0.38913,-0.1023197 -0.26158,-0.065397 -0.52712,-0.1252432 -0.79633,-0.1803506 -0.26921,-0.055105 -0.54231,-0.1052406 -0.81855,-0.1503786 -0.27625,-0.045135 -0.55602,-0.085431 -0.83871,-0.1209225 -0.28269,-0.035491 -0.56825,-0.066334 -0.8568,-0.092501 -0.28854,-0.026167 -0.58003,-0.047427 -0.87384,-0.064595 -0.29382,-0.017166 -0.58983,-0.030266 -0.88832,-0.038756 -0.2985,-0.00849 -0.59917,-0.012785 -0.901756,-0.01292 z"
		/>
		<path
			id="path2696"
			style="fill: url(#pattern1407); stroke: none"
			d="m 171.00196,204.29688 v 400 h 400 v -400 z m 206.59765,77.02539 c 1.14364,5.1e-4 2.28004,0.0167 3.40821,0.0488 1.12817,0.0321 2.24694,0.0816 3.35742,0.14648 1.11048,0.0649 2.21216,0.14524 3.30273,0.24414 1.09058,0.0989 2.16985,0.21547 3.23828,0.34961 1.06844,0.13414 2.12585,0.28644 3.16993,0.45703 1.04407,0.1706 2.07626,0.36009 3.09375,0.56836 1.01749,0.20828 2.02108,0.43447 3.00976,0.68164 0.49434,0.12359 0.98399,0.25318 1.47071,0.38672 0.48672,0.13354 0.97039,0.27237 1.44921,0.41602 0.43432,0.13029 0.86438,0.27075 1.29297,0.42187 0.42859,0.15113 0.85426,0.31228 1.27735,0.48242 0.42309,0.17015 0.8439,0.34976 1.26172,0.53711 0.41781,0.18736 0.83333,0.38318 1.24609,0.58594 0.41276,0.20276 0.82253,0.41256 1.23047,0.62891 0.40793,0.21635 0.81346,0.43788 1.2168,0.66601 0.80666,0.45627 1.60493,0.9352 2.39453,1.42774 0.7896,0.49254 1.57136,0.99933 2.3457,1.51367 0.77434,0.51434 1.54186,1.03693 2.30273,1.55859 1.52174,1.04333 3.01743,2.08648 4.4961,3.07227 0.4454,0.29693 0.89694,0.58459 1.35351,0.86523 0.45657,0.28065 0.91925,0.55387 1.38282,0.82422 0.92713,0.5407 1.86285,1.0661 2.79296,1.60156 0.46506,0.26774 0.92913,0.53904 1.38868,0.81446 0.45954,0.27541 0.91536,0.55466 1.36523,0.84375 0.44987,0.28908 0.89406,0.58773 1.33008,0.89648 0.43602,0.30875 0.86324,0.62849 1.28125,0.96289 0.17288,0.1383 0.35851,0.31435 0.55469,0.52539 0.19617,0.21105 0.40381,0.45772 0.61914,0.73243 0.21532,0.2747 0.43961,0.57893 0.66992,0.9082 0.23031,0.32926 0.46588,0.68385 0.70703,1.05859 0.24115,0.37475 0.48655,0.76856 0.73438,1.17969 0.24782,0.41113 0.4977,0.83891 0.74804,1.27734 0.50069,0.87687 1.00243,1.79893 1.48828,2.73047 0.48585,0.93154 0.95677,1.87165 1.39453,2.78516 0.43777,0.9135 0.84279,1.80028 1.19922,2.62305 0.35643,0.82276 0.6644,1.58287 0.90625,2.24218 0.12093,0.32966 0.2245,0.63305 0.31055,0.90821 0.0861,0.27516 0.15416,0.52084 0.20117,0.73242 0.0616,0.27695 0.10522,0.55577 0.13477,0.83594 0.0296,0.28016 0.0456,0.56303 0.0508,0.8457 0.005,0.28267 -2.8e-4,0.56513 -0.0117,0.84961 -0.0114,0.28447 -0.0303,0.56989 -0.0508,0.85547 -0.0409,0.57116 -0.0902,1.14346 -0.12109,1.71484 -0.0154,0.28569 -0.0259,0.57078 -0.0273,0.85547 -0.001,0.28469 0.005,0.57052 0.0254,0.85351 0.16735,2.34287 0.33705,4.62964 0.4961,6.89063 0.15905,2.26099 0.30715,4.49505 0.43554,6.72852 0.0642,1.11673 0.12344,2.23347 0.17578,3.35351 0.0523,1.12004 0.099,2.2429 0.13672,3.37305 0.0377,1.13015 0.0657,2.26701 0.0859,3.41406 0.0202,1.14705 0.0312,2.30582 0.0312,3.47656 0,0.88095 -0.008,1.78512 -0.0234,2.70899 -0.0159,0.92387 -0.0386,1.86609 -0.0723,2.82617 -0.0336,0.96008 -0.0776,1.93816 -0.13086,2.92773 -0.0532,0.98957 -0.11676,1.99157 -0.19141,3.00391 -0.0747,1.01234 -0.15987,2.0341 -0.25781,3.0625 -0.0979,1.0284 -0.20896,2.06382 -0.33203,3.10156 -0.12307,1.03774 -0.25815,2.07683 -0.40821,3.11719 -0.15005,1.04036 -0.31525,2.08092 -0.49414,3.11719 -0.17888,1.03627 -0.37247,2.06829 -0.58203,3.09375 -0.20956,1.02546 -0.43369,2.0448 -0.67578,3.05273 -0.24209,1.00793 -0.50088,2.0046 -0.77734,2.98828 -0.27646,0.98369 -0.57208,1.95353 -0.88477,2.90625 -0.15634,0.47637 -0.31667,0.94866 -0.48242,1.41602 -0.16575,0.46736 -0.33634,0.93115 -0.51172,1.38867 -0.17538,0.45752 -0.35577,0.90863 -0.54101,1.35547 -0.18525,0.44684 -0.37498,0.88889 -0.57032,1.32422 -0.19534,0.43532 -0.39589,0.86414 -0.60156,1.28711 -0.20567,0.42296 -0.41659,0.84023 -0.63281,1.25 -0.21623,0.40977 -0.43705,0.81325 -0.66406,1.20898 -0.22702,0.39573 -0.45924,0.78321 -0.69727,1.16407 -0.39803,0.63685 -0.81116,1.26185 -1.23437,1.87695 -0.42322,0.6151 -0.85664,1.22109 -1.30274,1.8164 -0.44609,0.59532 -0.90441,1.18031 -1.37109,1.75782 -0.46668,0.5775 -0.94277,1.14731 -1.42774,1.70898 -0.48497,0.56167 -0.97755,1.11626 -1.47851,1.66406 -0.50097,0.5478 -1.01073,1.0891 -1.52539,1.625 -0.51467,0.53591 -1.03448,1.06582 -1.56055,1.5918 -0.52607,0.52598 -1.05858,1.04838 -1.59375,1.56641 -1.07035,1.03605 -2.15505,2.05815 -3.24805,3.07422 -1.09299,1.01606 -2.19374,2.02525 -3.29101,3.03711 -1.09728,1.01185 -2.1922,2.02541 -3.27539,3.04882 -0.5416,0.51171 -1.08061,1.02542 -1.61524,1.54297 -0.53463,0.51755 -1.06447,1.03909 -1.58984,1.56446 -0.17635,0.17634 -0.42076,0.45019 -0.7168,0.79687 -0.29604,0.34668 -0.64401,0.76589 -1.02344,1.23633 -0.75884,0.94087 -1.64889,2.08388 -2.52343,3.24023 -0.43728,0.57818 -0.86951,1.15854 -1.28125,1.72071 -0.41174,0.56216 -0.80245,1.1059 -1.15235,1.60546 -0.3499,0.49957 -0.6584,0.95534 -0.91015,1.34571 -0.25175,0.39037 -0.44716,0.71462 -0.56446,0.94922 -0.0254,0.0507 -0.0392,0.10527 -0.0449,0.16211 -0.006,0.0568 -0.002,0.11692 0.006,0.17773 0.0156,0.12163 0.0512,0.24826 0.084,0.37305 0.0327,0.12479 0.0617,0.24642 0.0625,0.35742 4e-4,0.0555 -0.007,0.10933 -0.0234,0.1582 -0.0168,0.0489 -0.0439,0.0927 -0.084,0.13281 -0.0401,0.0401 -0.0857,0.0663 -0.13672,0.0801 -0.051,0.0138 -0.1072,0.0148 -0.16601,0.01 -0.11763,-0.01 -0.24685,-0.0497 -0.37695,-0.0899 -0.13011,-0.0401 -0.26126,-0.0798 -0.37891,-0.0898 -0.0588,-0.005 -0.11303,-0.002 -0.16406,0.0117 -0.051,0.0138 -0.0986,0.038 -0.13867,0.0781 -0.0401,0.0401 -0.0643,0.0876 -0.0781,0.13868 -0.0138,0.051 -0.0167,0.10524 -0.0117,0.16406 0.01,0.11764 0.0497,0.24879 0.0898,0.37891 0.0401,0.13011 0.0798,0.2593 0.0898,0.37695 0.005,0.0588 0.004,0.11498 -0.01,0.16601 -0.0138,0.051 -0.04,0.0985 -0.0801,0.13868 -0.0401,0.0401 -0.0839,0.0652 -0.13282,0.082 -0.0489,0.0168 -0.1027,0.0238 -0.1582,0.0234 -0.11099,-8.1e-4 -0.23262,-0.0297 -0.35742,-0.0625 -0.1248,-0.0327 -0.25337,-0.0684 -0.375,-0.084 -0.0608,-0.008 -0.11894,-0.0116 -0.17578,-0.006 -0.0568,0.006 -0.11136,0.0215 -0.16211,0.0469 -0.14355,0.0718 -0.27658,0.15866 -0.40039,0.25781 -0.12382,0.0992 -0.23793,0.20942 -0.34766,0.32812 -0.10973,0.1187 -0.21514,0.24457 -0.31641,0.375 -0.10127,0.13043 -0.19842,0.26605 -0.29687,0.40039 -0.0985,0.13435 -0.19756,0.26801 -0.29883,0.39844 -0.10127,0.13043 -0.20472,0.2563 -0.31445,0.375 -0.10973,0.1187 -0.22579,0.23093 -0.34961,0.33008 -0.12382,0.0992 -0.25684,0.18604 -0.40039,0.25781 -0.10151,0.0508 -0.20858,0.0784 -0.32227,0.0899 -0.11368,0.0115 -0.23384,0.006 -0.35547,-0.01 -0.12162,-0.0156 -0.24576,-0.04 -0.37109,-0.0703 -0.12533,-0.0303 -0.25021,-0.0649 -0.375,-0.0977 -0.12479,-0.0328 -0.24913,-0.065 -0.36914,-0.0879 -0.12001,-0.0229 -0.23666,-0.0363 -0.34766,-0.0371 -0.11099,-8.1e-4 -0.21671,0.0113 -0.31445,0.0449 -0.0489,0.0168 -0.0959,0.0387 -0.14063,0.0664 -0.0448,0.0277 -0.0868,0.0614 -0.12695,0.10156 -0.0401,0.0401 -0.0663,0.0857 -0.0801,0.13672 -0.0138,0.051 -0.0148,0.1072 -0.01,0.16602 0.01,0.11763 0.0497,0.24879 0.0898,0.3789 0.0401,0.13012 0.0798,0.25931 0.0898,0.37696 0.005,0.0588 0.002,0.11498 -0.0117,0.16601 -0.0138,0.051 -0.038,0.0966 -0.0781,0.13672 -0.0401,0.0401 -0.0822,0.0739 -0.12695,0.10156 -0.0448,0.0277 -0.0918,0.0496 -0.14063,0.0664 -0.0977,0.0336 -0.20345,0.0477 -0.31445,0.0469 -0.111,-8.1e-4 -0.22764,-0.0161 -0.34766,-0.0391 -0.12001,-0.0229 -0.24435,-0.0532 -0.36914,-0.0859 -0.12479,-0.0328 -0.24967,-0.0674 -0.375,-0.0977 -0.12533,-0.0303 -0.25142,-0.0567 -0.37304,-0.0723 -0.12163,-0.0156 -0.23983,-0.0212 -0.35352,-0.01 -0.11368,0.0114 -0.22271,0.0391 -0.32422,0.0898 -1.24124,0.62062 -2.30685,1.19129 -3.30859,1.7168 -0.50087,0.26275 -0.98584,0.51423 -1.46875,0.75586 -0.48292,0.24162 -0.96218,0.47305 -1.45508,0.69531 -0.4929,0.22226 -0.99846,0.43596 -1.5293,0.64062 -0.53083,0.20467 -1.08688,0.39907 -1.68359,0.5879 -0.59672,0.18882 -1.23329,0.37211 -1.92383,0.54687 -0.69054,0.17476 -1.43574,0.34145 -2.24805,0.50391 -0.61091,-0.0725 -1.22545,-0.1291 -1.84179,-0.17188 -0.61634,-0.0428 -1.23449,-0.0706 -1.85547,-0.0879 -0.62099,-0.0173 -1.24429,-0.0234 -1.86914,-0.0195 -0.62485,0.004 -1.25097,0.0164 -1.87891,0.0371 -0.62794,0.0207 -1.25842,0.0487 -1.88867,0.082 -0.63025,0.0334 -1.26081,0.0735 -1.89258,0.11523 -1.26354,0.0834 -2.52995,0.17836 -3.79492,0.26954 -1.26497,0.0912 -2.5289,0.17744 -3.78906,0.24218 -0.63008,0.0324 -1.25901,0.0588 -1.88672,0.0781 -0.62771,0.0194 -1.25435,0.0311 -1.87891,0.0332 -0.62455,0.002 -1.24656,-0.004 -1.86719,-0.0234 -0.62062,-0.0195 -1.23955,-0.0523 -1.85546,-0.0976 -0.61592,-0.0454 -1.22943,-0.10423 -1.83985,-0.17969 -0.61042,-0.0755 -1.21812,-0.1675 -1.82226,-0.27734 -0.62615,-0.11385 -1.24485,-0.24093 -1.85938,-0.38086 -0.61452,-0.13994 -1.22487,-0.29209 -1.82812,-0.45703 -0.60326,-0.16495 -1.20064,-0.34239 -1.79297,-0.53125 -0.59233,-0.18887 -1.17802,-0.38987 -1.75977,-0.60157 -0.58175,-0.21169 -1.15895,-0.43452 -1.73047,-0.66797 -0.57151,-0.23344 -1.13759,-0.47636 -1.69922,-0.73046 -0.56162,-0.25411 -1.11979,-0.51929 -1.67187,-0.79297 -0.55209,-0.27369 -1.09969,-0.55549 -1.64258,-0.84766 -0.54289,-0.29217 -1.0812,-0.59472 -1.61523,-0.9043 -0.53404,-0.30957 -1.06236,-0.62723 -1.58789,-0.95312 -0.52553,-0.32589 -1.04709,-0.65888 -1.56446,-1 -0.51737,-0.34112 -1.03146,-0.68966 -1.54101,-1.04492 -0.50956,-0.35527 -1.01549,-0.71761 -1.51758,-1.08594 -0.50209,-0.36833 -0.99918,-0.74275 -1.49414,-1.12305 -0.49496,-0.3803 -0.98643,-0.76702 -1.47461,-1.1582 -0.48819,-0.39119 -0.97333,-0.78652 -1.45508,-1.1875 -0.9635,-0.80197 -1.91562,-1.62238 -2.85547,-2.45703 -0.93984,-0.83465 -1.86815,-1.68433 -2.78711,-2.54297 -0.91895,-0.85865 -1.82769,-1.72762 -2.72851,-2.60156 -0.90083,-0.87395 -1.79423,-1.75225 -2.67969,-2.63282 -1.77093,-1.76112 -3.51417,-3.52823 -5.24023,-5.26367 -0.86304,-0.86772 -1.72021,-1.7279 -2.57618,-2.57617 -0.85596,-0.84827 -1.70888,-1.68378 -2.56054,-2.50391 -3.34242,-3.21862 -5.62963,-5.42594 -7.34375,-7.11718 -0.85706,-0.84563 -1.57129,-1.56132 -2.20313,-2.21094 -0.63184,-0.64962 -1.18114,-1.23305 -1.70898,-1.81055 -0.52785,-0.5775 -1.03304,-1.15002 -1.57813,-1.77929 -0.54509,-0.62928 -1.12893,-1.31615 -1.8125,-2.1211 -0.68357,-0.80495 -1.46687,-1.72752 -2.41015,-2.83203 -0.94329,-1.10451 -2.04687,-2.39001 -3.3711,-3.91797 -1.14618,-1.32251 -2.25853,-2.62725 -3.33789,-3.92187 -1.07936,-1.29463 -2.12669,-2.57915 -3.14258,-3.86329 -0.50794,-0.64207 -1.0073,-1.28502 -1.5,-1.92773 -0.4927,-0.64271 -0.97915,-1.28611 -1.45703,-1.93164 -0.47787,-0.64553 -0.94669,-1.29283 -1.41015,-1.94336 -0.46347,-0.65053 -0.92162,-1.30324 -1.3711,-1.96094 -0.44948,-0.6577 -0.89026,-1.31928 -1.32617,-1.98633 -0.43591,-0.66704 -0.8663,-1.339 -1.28906,-2.01757 -0.42276,-0.67857 -0.83802,-1.36438 -1.24805,-2.05664 -0.41002,-0.69227 -0.81518,-1.39147 -1.21289,-2.09961 -0.39771,-0.70815 -0.78802,-1.4242 -1.17383,-2.15039 -0.38581,-0.7262 -0.76629,-1.46257 -1.14062,-2.20899 -0.37433,-0.74642 -0.74416,-1.50461 -1.10743,-2.27344 -0.36326,-0.76882 -0.71964,-1.54839 -1.07226,-2.34179 -0.10306,-0.23189 -0.21565,-0.45979 -0.33399,-0.68555 -0.11833,-0.22576 -0.24333,-0.44999 -0.37109,-0.67187 -0.25552,-0.44378 -0.5231,-0.88235 -0.78125,-1.32422 -0.12907,-0.22094 -0.25599,-0.44216 -0.37695,-0.66602 -0.12097,-0.22385 -0.23675,-0.45065 -0.34375,-0.67969 -0.10701,-0.22903 -0.20577,-0.46078 -0.29297,-0.69726 -0.0872,-0.23648 -0.16307,-0.47648 -0.22461,-0.72266 -0.055,-0.22019 -0.1026,-0.44225 -0.14453,-0.66406 -0.0419,-0.22181 -0.0773,-0.44275 -0.10742,-0.66602 -0.0602,-0.44652 -0.0985,-0.89625 -0.11914,-1.34765 -0.0207,-0.4514 -0.0242,-0.90438 -0.0156,-1.35938 0.009,-0.455 0.0291,-0.91181 0.0566,-1.36914 0.055,-0.91466 0.13822,-1.83365 0.20703,-2.75 0.0344,-0.45817 0.0655,-0.91635 0.0879,-1.37305 0.0224,-0.45669 0.0352,-0.91129 0.0352,-1.36523 0,-0.45394 -0.0281,-0.91097 -0.0625,-1.36914 -0.0344,-0.45817 -0.074,-0.91767 -0.10156,-1.375 -0.0138,-0.22866 -0.025,-0.4561 -0.0293,-0.68359 -0.004,-0.2275 -0.003,-0.45595 0.008,-0.68165 0.0103,-0.22569 0.0285,-0.45056 0.0586,-0.67382 0.0301,-0.22327 0.0719,-0.44387 0.12695,-0.66407 0.10616,-0.42465 0.22912,-0.84744 0.36719,-1.26953 0.13806,-0.42208 0.29258,-0.84442 0.46093,-1.26367 0.16836,-0.41925 0.34984,-0.8358 0.54688,-1.25195 0.19704,-0.41616 0.4087,-0.83135 0.63281,-1.24414 0.22411,-0.41279 0.46137,-0.82326 0.71094,-1.23242 0.24957,-0.40917 0.51174,-0.81739 0.78516,-1.22266 0.27341,-0.40527 0.55785,-0.80788 0.85351,-1.20899 0.29566,-0.4011 0.60168,-0.80058 0.91797,-1.19726 0.31629,-0.39669 0.64321,-0.7916 0.97852,-1.18359 0.3353,-0.392 0.68048,-0.78093 1.0332,-1.16797 0.35271,-0.38705 0.71352,-0.77052 1.08203,-1.15235 0.36851,-0.38182 0.74425,-0.76233 1.12695,-1.13867 0.3827,-0.37634 0.77074,-0.74855 1.16602,-1.11914 0.39528,-0.37059 0.79688,-0.73894 1.20312,-1.10352 0.8125,-0.72915 1.64549,-1.44687 2.49219,-2.15039 0.8467,-0.70351 1.70815,-1.3926 2.57617,-2.06836 0.86802,-0.67575 1.74268,-1.33654 2.61914,-1.98242 0.87647,-0.64587 1.75494,-1.27675 2.62696,-1.89062 0.87202,-0.61388 1.7371,-1.21126 2.59179,-1.79102 0.8547,-0.57975 1.69895,-1.14203 2.52344,-1.68554 0.82449,-0.54352 1.63071,-1.06907 2.41211,-1.57422 1.56279,-1.01032 3.02476,-1.941 4.33789,-2.78516 0.4106,-0.26395 0.8138,-0.54305 1.20899,-0.83203 0.39518,-0.28898 0.78263,-0.58783 1.16796,-0.89258 0.77068,-0.60949 1.52827,-1.24249 2.29297,-1.85937 0.38235,-0.30845 0.76705,-0.61183 1.15625,-0.90821 0.38921,-0.29638 0.78196,-0.58433 1.1836,-0.85937 0.40163,-0.27505 0.81084,-0.53682 1.23047,-0.78125 0.20981,-0.12222 0.42331,-0.24069 0.63867,-0.35352 0.21536,-0.11282 0.4327,-0.21999 0.6543,-0.32226 0.84721,-0.39103 1.71445,-0.78313 2.5996,-1.17188 0.88516,-0.38875 1.78812,-0.7749 2.70899,-1.16016 0.92087,-0.38525 1.8601,-0.7679 2.81445,-1.14843 0.95436,-0.38054 1.92454,-0.75822 2.91016,-1.13282 0.98562,-0.37459 1.98534,-0.74779 3,-1.11523 1.01465,-0.36744 2.04447,-0.73078 3.08594,-1.08984 1.04146,-0.35907 2.09605,-0.71304 3.16211,-1.0625 1.06605,-0.34947 2.144,-0.69456 3.23242,-1.03321 1.08842,-0.33864 2.18636,-0.67144 3.29492,-0.99804 1.10856,-0.3266 2.22704,-0.64565 3.35351,-0.95899 1.12648,-0.31334 2.26214,-0.62106 3.4043,-0.91992 1.14216,-0.29886 2.29165,-0.58989 3.44727,-0.87305 1.15562,-0.28315 2.31751,-0.55799 3.48437,-0.82422 1.16686,-0.26622 2.3378,-0.5234 3.51367,-0.77148 1.17588,-0.24808 2.35641,-0.48613 3.53907,-0.71484 1.18266,-0.22872 2.36746,-0.44812 3.55468,-0.65625 1.18723,-0.20813 2.37685,-0.40548 3.56641,-0.5918 1.18956,-0.18632 2.37868,-0.3621 3.56836,-0.52539 1.18968,-0.16329 2.37884,-0.31408 3.56641,-0.45313 1.18756,-0.13904 2.37341,-0.26533 3.55664,-0.3789 1.18322,-0.11358 2.36435,-0.2139 3.54101,-0.30078 1.17667,-0.0869 2.3497,-0.16174 3.51758,-0.22071 1.16788,-0.059 2.33141,-0.10297 3.48828,-0.13281 1.15687,-0.0298 2.30754,-0.0454 3.45117,-0.0449 z"
			transform="scale(0.26458333)"
		/>
	</g>
</svg>
